<?xml version="1.0" encoding="utf-8"?>
<!-- Generator: Adobe Illustrator 16.0.0, SVG Export Plug-In . SVG Version: 6.00 Build 0)  -->
<!DOCTYPE svg PUBLIC "-//W3C//DTD SVG 1.1//EN" "http://www.w3.org/Graphics/SVG/1.1/DTD/svg11.dtd">
<svg version="1.1" id="Layer_1" xmlns="http://www.w3.org/2000/svg" xmlns:xlink="http://www.w3.org/1999/xlink" x="0px" y="0px"
	 width="455px" height="135px" viewBox="0 0 455 135" enable-background="new 0 0 455 135" xml:space="preserve">
<g id="Bg">
</g>
<g>
	<g>
		<g>
			<defs>
				<path id="SVGID_1_" d="M61.543,93.963c2.537-3.794,3.527-8.322,3.422-12.915c-0.006-0.022-0.01-0.048-0.015-0.07
					c-0.076-0.322-0.168-0.642-0.273-0.957c-1.099-6.506-6.739-11.461-13.535-11.461c-7.584,0-13.732,6.169-13.732,13.777
					c0,1.723,0.317,3.367,0.892,4.887c0.359,1.462,0.915,2.889,1.64,4.23c0.205,0.381,0.424,0.756,0.656,1.122
					c1.767,2.796,5.62,7.566,7.166,10.491c3.301,6.248,3.568,13.611,1.688,20.483c-1.082,3.955-2.874,7.748-5.212,11.074
					c-4.047-10.243-9.131-15-13.953-21.657c-0.095-0.13-0.188-0.259-0.282-0.391c-0.995-1.392-1.953-2.938-2.8-4.556
					c-0.004-0.008-0.009-0.016-0.012-0.022c-0.043-0.083-0.085-0.165-0.127-0.249c-0.334-0.658-0.66-1.343-0.976-2.057
					c-0.352-0.811-0.662-1.627-0.935-2.442c-2.209,1.821-4.7,3.339-7.36,4.52c-3.738,1.66-7.802,2.663-11.847,2.947
					c5.353-9.62,5.813-16.578,7.906-24.536c0.041-0.156,0.08-0.311,0.122-0.467c0.447-1.651,1.035-3.376,1.75-5.056
					c0.003-0.009,0.006-0.017,0.01-0.023c0.036-0.086,0.074-0.171,0.111-0.256c0.088-0.199,0.183-0.399,0.273-0.601
					c-1.855-0.313-3.696-0.793-5.489-1.43C6.778,76.979,3.137,74.912,0,72.333c10.475-3.309,15.57-8.053,22.537-12.398
					c0.136-0.085,0.271-0.17,0.409-0.254c1.454-0.895,3.061-1.743,4.729-2.472c0.008-0.004,0.015-0.008,0.022-0.011
					c0.086-0.038,0.172-0.073,0.258-0.11c0.597-0.251,1.216-0.493,1.853-0.729c-3.465-3.46-6.151-7.751-7.981-12.426
					c0-0.002,0-0.002,0-0.002c-1.762-4.499-2.738-9.35-2.871-14.144c10.776,6.648,18.803,7.648,27.784,10.368
					c-1.637-4.007-2.739-8.181-2.822-12.5c-0.132-6.912,2.485-13.839,7.15-18.928C55.733,3.639,62.394,0.445,69.271,0
					c-1.03,1.29-1.66,2.733-1.987,4.264c-0.001,0-0.001-0.001-0.001-0.001s-0.002,0.011-0.004,0.027
					c-0.152,0.717-0.238,1.456-0.265,2.205c-0.128,3.538,1.024,7.347,2.462,10.707c2.442,5.709,6.771,13.021,9.708,18.353
					C85.66,47.307,89.88,55.436,86.332,67.3c-0.02,0.067-0.036,0.133-0.057,0.198c-1.178,3.858-2.956,7.519-5.213,10.855
					C76.321,85.37,69.453,90.962,61.543,93.963z M103.02,87.527c-2.014-4.62-12.753-22.653-20.136-8.621
					c-7.382,14.029-20.807,15.909-20.807,15.909s12.417,1.036,23.491-7.288C96.644,79.202,105.033,92.147,103.02,87.527z"/>
			</defs>
			<clipPath id="SVGID_2_">
				<use xlink:href="#SVGID_1_"  overflow="visible"/>
			</clipPath>
			<g clip-path="url(#SVGID_2_)">
				
					<linearGradient id="SVGID_3_" gradientUnits="userSpaceOnUse" x1="-79.1287" y1="409.2881" x2="-79.1287" y2="498.668" gradientTransform="matrix(0.9187 0.3949 0.3949 -0.9187 -42.2144 494.8511)">
					<stop  offset="0" style="stop-color:#DB0C81"/>
					<stop  offset="1" style="stop-color:#EE3D23"/>
				</linearGradient>
				<path fill="url(#SVGID_3_)" d="M86.276,67.498c0.021-0.065,0.037-0.131,0.057-0.198c3.548-11.864-0.672-19.993-7.148-31.745
					c-2.937-5.332-7.266-12.644-9.708-18.353c-1.438-3.359-2.59-7.168-2.462-10.707c0.026-0.749,0.112-1.488,0.265-2.205
					c0.002-0.016,0.004-0.027,0.004-0.027s0,0.001,0.001,0.001C67.611,2.733,68.24,1.29,69.271,0
					c-6.877,0.445-13.538,3.639-18.202,8.728c-4.665,5.089-7.282,12.016-7.15,18.928c0.153,7.973,3.766,15.453,7.837,22.302
					c2.142,3.601,4.439,7.138,6.521,10.776c1.877,3.279,3.574,6.642,4.811,10.213c0.063,0.181,0.123,0.363,0.184,0.546
					c2.435,7.41,2.595,16.008-1.727,22.47c7.91-3.001,14.777-8.593,19.52-15.609C83.32,75.017,85.098,71.356,86.276,67.498z"/>
				
					<linearGradient id="SVGID_4_" gradientUnits="userSpaceOnUse" x1="88.0642" y1="813.4219" x2="88.0642" y2="880.0518" gradientTransform="matrix(0.9443 -0.3292 -0.3292 -0.9443 241.9331 884.0852)">
					<stop  offset="0" style="stop-color:#F04E23"/>
					<stop  offset="0.3929" style="stop-color:#F37021"/>
					<stop  offset="1" style="stop-color:#FBB040"/>
				</linearGradient>
				<path opacity="0.8" fill="url(#SVGID_4_)" enable-background="new    " d="M60.686,47.101c-1.285-1.036-2.725-1.991-4.243-2.86
					c-0.8-0.449-1.589-0.865-2.367-1.249c-0.1-0.05-0.196-0.099-0.296-0.146c-0.009-0.006-0.018-0.01-0.027-0.014
					c-1.937-0.928-3.931-1.707-5.847-2.316c-0.182-0.057-0.361-0.112-0.542-0.169c-9.236-2.869-17.381-3.757-28.407-10.559
					c0.133,4.794,1.109,9.645,2.871,14.144c0,0,0,0,0,0.002c0,0,0.012,0.004,0.03,0.011c-0.018-0.007-0.03-0.011-0.03-0.011
					c3.062,7.818,8.495,14.577,16.006,18.136c3.519,1.666,10.513,3.438,14.147,4.827c0.476,0.181,0.945,0.38,1.408,0.594
					c3.066,1.416,5.789,3.521,7.718,6.216c1.609,2.251,3.229,4.673,3.844,7.271c0.25,1.063,0.335,2.155,0.18,3.279
					c2.286-6.268,4.031-12.868,3.702-19.533C68.506,58.059,65.871,51.277,60.686,47.101z M48.984,62.932
					c0.486,0.475,0.976,0.96,1.465,1.456C49.959,63.892,49.47,63.407,48.984,62.932z"/>
				
					<linearGradient id="SVGID_5_" gradientUnits="userSpaceOnUse" x1="527.7961" y1="536.8838" x2="527.7961" y2="593.2695" gradientTransform="matrix(0.3701 -0.929 -0.929 -0.3701 361.2845 768.4806)">
					<stop  offset="0" style="stop-color:#F04E23"/>
					<stop  offset="0.3929" style="stop-color:#F37021"/>
					<stop  offset="1" style="stop-color:#FBB040"/>
				</linearGradient>
				<path opacity="0.8" fill="url(#SVGID_5_)" enable-background="new    " d="M34.256,55.122c-1.375,0.251-2.786,0.646-4.185,1.139
					c-0.731,0.265-1.437,0.54-2.115,0.827c-0.086,0.037-0.172,0.072-0.258,0.11c-0.008,0.003-0.015,0.007-0.022,0.011
					c-1.669,0.729-3.275,1.577-4.729,2.472c-0.138,0.084-0.273,0.169-0.409,0.254C15.571,64.28,10.475,69.024,0,72.333
					c3.137,2.579,6.777,4.646,10.632,6.017l0,0c0,0,0.01-0.005,0.024-0.013c-0.015,0.008-0.024,0.013-0.024,0.013
					c6.696,2.377,14.035,2.642,20.483-0.21c3.02-1.338,8.04-4.849,10.948-6.415c0.38-0.205,0.769-0.397,1.162-0.575
					c2.608-1.185,5.468-1.766,8.261-1.507c2.332,0.216,4.781,0.52,6.782,1.57c0.818,0.429,1.563,0.983,2.193,1.706
					c-2.731-4.953-5.979-9.745-10.42-13.24C45.604,56.186,39.808,54.108,34.256,55.122z M37.865,71.447
					c0.575-0.049,1.156-0.094,1.744-0.132C39.021,71.354,38.439,71.398,37.865,71.447z"/>
				
					<linearGradient id="SVGID_6_" gradientUnits="userSpaceOnUse" x1="668.4749" y1="145.0493" x2="668.4749" y2="201.4863" gradientTransform="matrix(-0.3686 -0.9296 -0.9296 0.3686 434.1788 644.0647)">
					<stop  offset="0" style="stop-color:#F04E23"/>
					<stop  offset="0.3929" style="stop-color:#F37021"/>
					<stop  offset="1" style="stop-color:#FBB040"/>
				</linearGradient>
				<path opacity="0.8" fill="url(#SVGID_6_)" enable-background="new    " d="M19.085,74.611c-0.829,1.129-1.585,2.388-2.265,3.71
					c-0.352,0.696-0.676,1.382-0.973,2.059c-0.037,0.085-0.075,0.17-0.111,0.256c-0.004,0.007-0.007,0.015-0.01,0.023
					c-0.715,1.68-1.303,3.404-1.75,5.056c-0.042,0.156-0.081,0.311-0.122,0.467c-2.094,7.958-2.554,14.916-7.906,24.536
					c4.045-0.284,8.108-1.287,11.847-2.947l0,0c0,0,0.004-0.009,0.01-0.025c-0.006,0.017-0.01,0.025-0.01,0.025
					c6.497-2.882,12.014-7.744,14.752-14.261c1.281-3.05,2.53-9.063,3.572-12.202c0.138-0.412,0.288-0.817,0.452-1.22
					c1.087-2.658,2.769-5.051,4.977-6.785c1.844-1.449,3.832-2.913,6.006-3.528c0.889-0.251,1.811-0.363,2.765-0.271
					c-5.376-1.719-11.017-2.968-16.637-2.451C28.064,67.568,22.429,70.051,19.085,74.611z M32.877,83.997
					c0.385-0.431,0.777-0.864,1.18-1.296C33.655,83.133,33.261,83.566,32.877,83.997z"/>
				
					<linearGradient id="SVGID_7_" gradientUnits="userSpaceOnUse" x1="349.9646" y1="-417.5176" x2="349.9646" y2="-360.939" gradientTransform="matrix(-0.9533 -0.302 -0.302 0.9533 254.7449 579.9267)">
					<stop  offset="0" style="stop-color:#F04E23"/>
					<stop  offset="0.3929" style="stop-color:#F37021"/>
					<stop  offset="1" style="stop-color:#FBB040"/>
				</linearGradient>
				<path opacity="0.8" fill="url(#SVGID_7_)" enable-background="new    " d="M24.656,101.587c0.349,1.357,0.844,2.742,1.435,4.106
					c0.315,0.714,0.642,1.398,0.976,2.057c0.042,0.084,0.084,0.166,0.127,0.249c0.003,0.007,0.008,0.015,0.012,0.022
					c0.847,1.617,1.805,3.164,2.8,4.556c0.094,0.132,0.188,0.261,0.282,0.391c4.822,6.657,9.906,11.414,13.953,21.657
					c2.338-3.326,4.13-7.119,5.212-11.074l0,0c0,0-0.006-0.011-0.014-0.024c0.008,0.014,0.014,0.024,0.014,0.024
					c1.88-6.872,1.612-14.235-1.688-20.483c-1.546-2.925-5.399-7.695-7.166-10.491c-0.232-0.366-0.451-0.741-0.656-1.122
					c-1.365-2.525-2.15-5.344-2.095-8.158c0.047-2.35,0.173-4.822,1.071-6.9c0.368-0.851,0.864-1.636,1.538-2.318
					c-4.727,3.091-9.256,6.688-12.408,11.384C24.893,90.155,23.248,96.104,24.656,101.587z M40.624,96.797
					c-0.09-0.57-0.176-1.149-0.257-1.736C40.448,95.647,40.534,96.227,40.624,96.797z"/>
				
					<linearGradient id="SVGID_8_" gradientUnits="userSpaceOnUse" x1="82.718" y1="704.2383" x2="82.718" y2="725.4365" gradientTransform="matrix(1 0 0 -1 -0.02 799.0947)">
					<stop  offset="0" style="stop-color:#F04E23"/>
					<stop  offset="0.3929" style="stop-color:#F37021"/>
					<stop  offset="1" style="stop-color:#FBB040"/>
				</linearGradient>
				<path fill="url(#SVGID_8_)" d="M62.077,94.815c0,0,13.425-1.88,20.807-15.909c7.383-14.032,18.122,4.001,20.136,8.621
					s-6.376-8.325-17.451,0C74.494,95.852,62.077,94.815,62.077,94.815z"/>
			</g>
		</g>
		
			<linearGradient id="SVGID_9_" gradientUnits="userSpaceOnUse" x1="51.2019" y1="705.3828" x2="51.2019" y2="727.2461" gradientTransform="matrix(1 0 0 -1 -0.02 799.0947)">
			<stop  offset="0" style="stop-color:#DB0C81"/>
			<stop  offset="1" style="stop-color:#EE3D23"/>
		</linearGradient>
		<ellipse fill="url(#SVGID_9_)" cx="51.183" cy="82.779" rx="10.895" ry="10.932"/>
	</g>
	<g>
		<path fill="#001371" d="M122.06,92.8c1.526-0.079,2.75-0.29,3.671-0.633s1.75-0.897,2.487-1.664
			c0.814-0.845,1.374-1.92,1.677-3.227c0.303-1.308,0.454-3.307,0.454-6V52.091c0-2.902-0.178-5.027-0.533-6.374
			s-1.046-2.455-2.072-3.327c-1.289-1.082-3.184-1.689-5.684-1.82v-0.912h21.709c4.814,0,7.879,0.053,9.195,0.159
			c5.552,0.422,10.263,2.006,14.13,4.751c3.684,2.613,6.552,6.04,8.604,10.276c2.053,4.238,3.078,8.851,3.078,13.84
			c0,3.644-0.585,7.082-1.756,10.316s-2.796,5.92-4.874,8.059c-2.921,3.009-6.566,4.923-10.934,5.741
			c-3.263,0.608-6.591,0.911-9.985,0.911H122.06V92.8z M138.992,40.886v39.361c0,2.587,0.145,4.554,0.435,5.9
			c0.289,1.347,0.828,2.495,1.618,3.445c1.683,2.059,4.42,3.088,8.21,3.088c3.236,0,6.005-0.534,8.308-1.604
			c2.302-1.068,4.361-2.805,6.177-5.206c1.789-2.323,3.15-4.983,4.085-7.98c0.935-2.995,1.401-6.183,1.401-9.563
			c0-3.749-0.565-7.313-1.697-10.692c-1.132-3.378-2.75-6.336-4.855-8.87c-2.92-3.511-6.407-5.835-10.458-6.97
			c-2.211-0.606-5.026-0.91-8.446-0.91H138.992z"/>
		<path fill="#001371" d="M196.165,65.551c0.947-1.662,2.013-2.915,3.197-3.759c2.184-1.556,4.67-2.334,7.459-2.334
			c1.711,0,3.013,0.382,3.908,1.146c0.815,0.687,1.224,1.53,1.224,2.533c0,0.738-0.244,1.345-0.73,1.82
			c-0.487,0.475-1.112,0.712-1.875,0.712c-0.895,0-1.671-0.369-2.329-1.107l-1.223-1.345c-0.974-1.029-2.119-1.543-3.434-1.543
			c-1.79,0-3.184,1.161-4.185,3.48c-1,2.32-1.499,5.551-1.499,9.688v7.396l0.039,3.006c0,1.793,0.105,3.105,0.316,3.936
			c0.21,0.83,0.617,1.523,1.223,2.076c0.736,0.711,2.092,1.252,4.066,1.621v0.832h-17.446v-0.832c1.579-0.21,2.71-0.504,3.395-0.887
			c0.685-0.38,1.236-1.03,1.657-1.95c0.289-0.604,0.493-1.516,0.612-2.738c0.118-1.222,0.178-2.987,0.178-5.299v-9.731
			c0-2.705-0.066-4.603-0.198-5.693c-0.132-1.09-0.421-1.977-0.868-2.658c-0.447-0.735-0.986-1.269-1.617-1.596
			c-0.632-0.329-1.54-0.532-2.724-0.612v-0.831l10.175-1.425C195.939,61.827,196.165,63.858,196.165,65.551z"/>
		<path fill="#001371" d="M248.656,89.87l0.672,0.396c-0.947,2.771-3.118,4.158-6.514,4.158c-1.87,0-3.426-0.463-4.664-1.387
			c-0.816-0.606-1.659-1.662-2.528-3.167c-1.767,1.583-3.099,2.626-3.994,3.128c-1.713,0.951-3.702,1.426-5.968,1.426
			c-2.899,0-5.198-0.7-6.897-2.099c-1.7-1.398-2.549-3.287-2.549-5.662c0-2.192,0.696-4.026,2.091-5.505
			c0.79-0.818,1.697-1.472,2.724-1.96s2.512-0.984,4.46-1.486c2.289-0.58,3.979-1.068,5.071-1.464
			c1.092-0.396,2.007-0.872,2.743-1.426c0.842-0.607,1.421-1.321,1.737-2.139c0.314-0.818,0.473-1.954,0.473-3.405
			c0-3.089-0.578-5.347-1.737-6.772c-0.525-0.658-1.203-1.188-2.031-1.584c-0.829-0.396-1.69-0.594-2.585-0.594
			c-1.079,0-2.039,0.277-2.882,0.831c-0.842,0.555-1.474,1.321-1.894,2.298l-0.987,2.296c-0.526,1.242-1.474,1.861-2.842,1.861
			c-0.895,0-1.645-0.297-2.25-0.891s-0.907-1.34-0.907-2.237c0-1.347,0.947-2.48,2.847-3.405c1.026-0.476,2.299-0.864,3.814-1.168
			s2.998-0.455,4.447-0.455c1.634,0,3.334,0.211,5.1,0.633c1.767,0.423,3.241,0.965,4.428,1.623c1.713,0.978,2.78,2.245,3.202,3.803
			c0.211,0.792,0.316,2.126,0.316,4v14.65c0,2.482,0.105,4.172,0.316,5.069c0.445,1.874,1.526,2.812,3.235,2.812
			c0.815,0,1.454-0.146,1.915-0.436C247.478,91.322,248.025,90.741,248.656,89.87z M235.593,74.268
			c-1.417,1.188-2.978,2.231-4.684,3.129c-1.914,1.029-3.238,1.808-3.973,2.336c-0.735,0.528-1.403,1.161-2.006,1.9
			c-1.234,1.532-1.851,3.313-1.851,5.346c0,1.742,0.479,3.182,1.437,4.316c0.957,1.136,2.17,1.703,3.64,1.703
			c1.284,0,2.497-0.401,3.639-1.207c1.141-0.806,2-1.882,2.576-3.229c0.813-1.769,1.222-4.329,1.222-7.682V74.268z"/>
		<path fill="#001371" d="M261.512,97.076l-0.709,0.198c-0.447-0.739-0.895-1.254-1.343-1.544c-0.447-0.291-1-0.436-1.656-0.436
			c-1.106,0-2.009,0.422-2.704,1.268c-0.697,0.845-1.047,1.94-1.047,3.287c0,2.138,1.066,3.893,3.198,5.266
			c2.131,1.373,4.853,2.06,8.169,2.06c3.526,0,6.375-0.76,8.546-2.277c2.17-1.518,3.255-3.491,3.255-5.92
			c0-1.954-0.723-3.452-2.171-4.494c-1.445-1.043-3.513-1.564-6.195-1.564h-6.275c-2.579,0-4.658-0.608-6.237-1.827
			c-1.631-1.271-2.446-2.794-2.446-4.568c0-1.88,0.868-3.364,2.604-4.45c0.896-0.529,2.526-1.098,4.895-1.707
			c-2.29-1.055-4.065-2.444-5.328-4.17c-1.264-1.727-1.895-3.63-1.895-5.712c0-2.661,0.986-5.033,2.962-7.113
			c1.158-1.239,2.528-2.2,4.106-2.886c1.581-0.686,3.198-1.027,4.859-1.027c2.526,0,5.105,0.897,7.739,2.691
			c1.24-0.977,2.354-1.668,3.345-2.078c0.988-0.409,2.063-0.613,3.224-0.613c1.291,0,2.333,0.276,3.126,0.831
			c0.949,0.687,1.425,1.531,1.425,2.535c0,0.607-0.188,1.115-0.56,1.523c-0.371,0.41-0.836,0.614-1.393,0.614
			c-0.85,0-1.62-0.448-2.312-1.346l-0.904-1.188c-0.5-0.634-1.208-0.95-2.126-0.95c-0.971,0-1.995,0.487-3.071,1.464
			c2.147,2.614,3.22,5.307,3.22,8.078c0,3.46-1.529,6.192-4.59,8.198c-1.531,1.004-3.181,1.676-4.946,2.019
			c-0.528,0.08-2.204,0.212-5.027,0.396c-3.867,0.238-5.801,1.321-5.801,3.248c0,1.689,1.646,2.533,4.941,2.533h6.521
			c2.294,0,4.229,0.205,5.811,0.615c1.583,0.408,2.966,1.049,4.151,1.92c2.319,1.716,3.48,4.131,3.48,7.246
			c0,3.433-1.345,6.112-4.031,8.039c-2.767,1.979-6.824,2.97-12.174,2.97c-5.742,0-9.814-1.162-12.211-3.485
			c-1.528-1.504-2.292-3.38-2.292-5.622c0-1.77,0.566-3.268,1.697-4.495c1.132-1.227,2.513-1.841,4.145-1.841
			c1.184,0,2.151,0.356,2.901,1.068c0.75,0.714,1.123,1.65,1.123,2.812V97.076z M259.817,70.763c0,2.845,0.596,5.164,1.789,6.955
			c1.194,1.792,2.722,2.688,4.584,2.688c1.888,0,3.356-0.889,4.405-2.668c1.05-1.777,1.575-4.248,1.575-7.409
			c0-3.269-0.682-5.875-2.046-7.826c-0.998-1.448-2.282-2.174-3.856-2.174c-1.888,0-3.409,0.949-4.564,2.847
			c-0.576,0.947-1.035,2.107-1.377,3.478C259.987,68.022,259.817,69.393,259.817,70.763z"/>
		<path fill="#001371" d="M286.681,77.001c0-4.277,1.579-8.093,4.736-11.445c3.841-4.064,8.433-6.098,13.774-6.098
			s9.919,2.033,13.735,6.098c3.157,3.38,4.736,7.207,4.736,11.484c0,4.224-1.501,7.985-4.5,11.285
			c-3.685,4.065-8.341,6.099-13.972,6.099s-10.303-2.033-14.013-6.099c-1.446-1.584-2.558-3.353-3.335-5.307
			C287.068,81.066,286.681,79.059,286.681,77.001z M293.864,76.546c0,4.588,1.025,8.476,3.079,11.667
			c2.315,3.561,5.145,5.34,8.485,5.34c1.42,0,2.802-0.396,4.145-1.187c1.342-0.791,2.498-1.898,3.474-3.322
			c1.025-1.477,1.854-3.329,2.485-5.557c0.633-2.229,0.947-4.385,0.947-6.467c0-2.162-0.334-4.345-1.006-6.546
			c-0.671-2.202-1.573-4.095-2.704-5.677c-2.157-2.979-4.803-4.47-7.933-4.47c-2.974,0-5.539,1.569-7.696,4.707
			C294.955,68.174,293.864,72.01,293.864,76.546z"/>
		<path fill="#001371" d="M338.598,59.458c0.371,1.539,0.557,2.972,0.557,4.299v0.637c3.263-3.291,7.144-4.936,11.643-4.936
			c3.369,0,6.078,0.79,8.13,2.372c2.026,1.557,3.04,3.771,3.04,6.646v16.77c0,1.794,0.105,3.105,0.316,3.937
			c0.209,0.83,0.618,1.523,1.224,2.076c0.736,0.711,2.091,1.252,4.063,1.621v0.832h-17.443v-0.832c1.579-0.21,2.71-0.507,3.394-0.89
			c0.685-0.383,1.237-1.033,1.657-1.957c0.289-0.606,0.494-1.523,0.611-2.748c0.119-1.228,0.178-2.987,0.178-5.281v-8.384
			c0-2.875-0.098-4.984-0.295-6.328c-0.197-1.345-0.57-2.427-1.121-3.244c-0.604-0.922-1.472-1.641-2.599-2.154
			c-1.13-0.515-2.376-0.772-3.742-0.772c-1.469,0-2.843,0.29-4.114,0.87c-1.274,0.581-2.278,1.371-3.013,2.372
			c-0.788,1.056-1.306,2.249-1.556,3.58c-0.248,1.332-0.373,3.54-0.373,6.625v7.751l0.039,2.927c0,1.794,0.105,3.106,0.316,3.937
			c0.209,0.83,0.617,1.523,1.224,2.076c0.736,0.711,2.09,1.252,4.065,1.621v0.832h-17.445v-0.832c1.578-0.21,2.71-0.504,3.394-0.887
			c0.684-0.38,1.237-1.03,1.657-1.95c0.289-0.604,0.494-1.516,0.613-2.738c0.117-1.222,0.176-2.987,0.176-5.299v-9.731
			c0-2.705-0.064-4.603-0.197-5.693c-0.131-1.09-0.42-1.977-0.867-2.658c-0.448-0.735-0.987-1.269-1.618-1.596
			c-0.631-0.329-1.54-0.532-2.724-0.612v-0.831L338.598,59.458z"/>
		<path fill="#001371" d="M384.008,61.556V82.24l0.039,3.006c0,1.793,0.105,3.105,0.316,3.936s0.618,1.523,1.224,2.076
			c0.736,0.711,2.093,1.252,4.065,1.621v0.832h-17.445v-0.832c1.578-0.21,2.71-0.507,3.394-0.89
			c0.687-0.383,1.237-1.033,1.659-1.957c0.289-0.606,0.492-1.523,0.611-2.748c0.119-1.228,0.178-3,0.178-5.32V61.556h-5.723v-1.504
			h5.723V50.39c0-2.323,0.297-4.158,0.893-5.504c0.597-1.347,1.663-2.588,3.201-3.723c1.375-1.004,3.056-1.789,5.042-2.356
			c1.987-0.567,4.086-0.852,6.298-0.852c2.051,0,3.694,0.355,4.933,1.069c1.235,0.712,1.854,1.663,1.854,2.851
			c0,0.792-0.256,1.452-0.77,1.98c-0.512,0.528-1.14,0.792-1.874,0.792c-0.711,0-1.33-0.191-1.856-0.574
			c-0.525-0.383-1.053-1.01-1.578-1.881c-0.736-1.214-1.343-2.014-1.815-2.396c-0.475-0.383-1.119-0.575-1.935-0.575
			c-1,0-1.947,0.205-2.84,0.614c-0.896,0.409-1.593,0.944-2.093,1.604c-0.553,0.739-0.935,1.709-1.146,2.911
			c-0.211,1.201-0.316,2.937-0.316,5.207v10.494h7.776v1.504H384.008z"/>
		<path fill="#001371" d="M401.853,39.499l11.367-1.426v44.161l0.039,3.007c0,1.796,0.105,3.107,0.316,3.938
			s0.617,1.523,1.223,2.078c0.737,0.711,2.093,1.252,4.066,1.621v0.832h-17.446v-0.832c1.579-0.21,2.711-0.506,3.395-0.889
			c0.686-0.382,1.236-1.034,1.658-1.958c0.289-0.605,0.492-1.522,0.611-2.748c0.12-1.226,0.179-2.997,0.179-5.318V50.927
			c0-2.688-0.066-4.585-0.198-5.692c-0.133-1.107-0.422-2.004-0.869-2.689c-0.447-0.737-0.986-1.265-1.617-1.581
			c-0.632-0.316-1.54-0.515-2.724-0.593V39.499z"/>
		<path fill="#001371" d="M420.031,60.052h15.314v0.87c-1.081,0.159-1.856,0.369-2.329,0.634c-1.025,0.58-1.54,1.476-1.54,2.688
			c0,1.054,0.538,2.939,1.61,5.654l6.6,16.962l5.762-14.274c1.421-3.558,2.132-6.075,2.132-7.551c0-1.187-0.33-2.129-0.986-2.827
			c-0.659-0.699-1.618-1.127-2.882-1.286v-0.87H455v0.87c-1.132,0.318-1.968,0.647-2.507,0.99s-1.06,0.885-1.56,1.623
			c-0.764,1.163-1.973,3.763-3.63,7.802l-11.447,27.878c-1.368,3.326-2.474,5.491-3.315,6.495c-1.421,1.663-3.223,2.494-5.406,2.494
			c-1.396,0-2.521-0.271-3.375-0.812c-0.855-0.541-1.283-1.248-1.283-2.119c0-0.687,0.25-1.234,0.748-1.643
			c0.498-0.41,1.155-0.613,1.968-0.613c0.682,0,1.47,0.184,2.36,0.554c0.867,0.343,1.424,0.554,1.672,0.634
			c0.251,0.078,0.546,0.118,0.888,0.118c1.625,0,2.95-1.232,3.974-3.697l1.222-3.023c0.523-1.271,0.785-2.252,0.785-2.942
			c0-0.974-0.498-2.676-1.493-5.102l-8.18-19.736l-1.181-2.849c-0.709-1.688-1.262-2.888-1.657-3.599
			c-0.395-0.712-0.789-1.226-1.184-1.543c-0.658-0.5-1.447-0.804-2.368-0.91V60.052z"/>
	</g>
	<g>
		<g>
			<path fill="#001371" d="M122.006,120.99l4.748-0.597v9.527l0.017,1.253c0,0.747,0.044,1.294,0.132,1.64
				c0.088,0.347,0.259,0.635,0.511,0.865c0.308,0.297,0.874,0.522,1.698,0.677v0.347h-7.287v-0.347
				c0.659-0.089,1.133-0.212,1.418-0.371c0.286-0.158,0.517-0.431,0.693-0.814c0.12-0.253,0.206-0.634,0.255-1.144
				c0.05-0.511,0.074-1.249,0.074-2.214v-4.065c0-1.13-0.027-1.923-0.082-2.377c-0.056-0.456-0.176-0.826-0.363-1.112
				c-0.188-0.307-0.412-0.528-0.676-0.666c-0.264-0.137-0.644-0.222-1.138-0.255V120.99z M125.444,114.456
				c-0.432,0-0.787-0.138-1.069-0.413c-0.281-0.275-0.423-0.624-0.423-1.043c0-0.408,0.144-0.752,0.432-1.033
				c0.287-0.281,0.641-0.423,1.061-0.423s0.773,0.142,1.061,0.423c0.288,0.281,0.432,0.625,0.432,1.033
				c0,0.419-0.141,0.768-0.423,1.043S125.874,114.456,125.444,114.456z"/>
			<path fill="#001371" d="M134.699,120.394c0.154,0.644,0.231,1.242,0.231,1.796v0.267c1.363-1.375,2.984-2.063,4.864-2.063
				c1.406,0,2.539,0.331,3.396,0.991c0.847,0.651,1.27,1.576,1.27,2.776v7.005c0,0.749,0.044,1.298,0.132,1.645
				s0.259,0.636,0.512,0.866c0.308,0.298,0.873,0.523,1.698,0.679v0.347h-7.287v-0.347c0.659-0.089,1.132-0.213,1.418-0.373
				c0.285-0.159,0.517-0.431,0.692-0.817c0.12-0.253,0.206-0.636,0.255-1.147c0.05-0.513,0.074-1.248,0.074-2.206v-3.502
				c0-1.201-0.041-2.082-0.123-2.644c-0.083-0.562-0.238-1.013-0.469-1.354c-0.252-0.386-0.614-0.686-1.086-0.9
				c-0.471-0.215-0.991-0.322-1.563-0.322c-0.613,0-1.187,0.122-1.719,0.363c-0.531,0.242-0.951,0.573-1.258,0.991
				c-0.329,0.44-0.546,0.939-0.649,1.495c-0.104,0.557-0.157,1.479-0.157,2.768v3.237l0.017,1.223c0,0.749,0.044,1.298,0.133,1.645
				c0.088,0.347,0.258,0.636,0.511,0.866c0.308,0.298,0.874,0.523,1.698,0.679v0.347h-7.287v-0.347
				c0.659-0.089,1.132-0.212,1.418-0.371c0.285-0.158,0.516-0.431,0.692-0.814c0.12-0.253,0.206-0.634,0.256-1.144
				c0.049-0.511,0.074-1.249,0.074-2.214v-4.065c0-1.13-0.028-1.923-0.083-2.377c-0.055-0.456-0.176-0.826-0.363-1.112
				c-0.187-0.307-0.411-0.528-0.675-0.666c-0.265-0.137-0.644-0.222-1.138-0.255v-0.347L134.699,120.394z"/>
			<path fill="#001371" d="M155.276,120.642h6.414v0.364c-1.231,0.066-1.847,0.546-1.847,1.437c0,0.441,0.218,1.354,0.655,2.741
				l1.999,6.16l2.81-7.447c0.221-0.573,0.331-1.035,0.331-1.388c0-0.946-0.571-1.447-1.715-1.503v-0.364h6.314v0.364
				c-0.539,0.077-0.918,0.192-1.138,0.347c-0.352,0.243-0.527,0.605-0.527,1.09c0,0.387,0.104,0.932,0.313,1.635l2.169,7.267
				l2.558-6.539c0.328-0.848,0.492-1.492,0.492-1.933c0-0.594-0.207-1.051-0.621-1.37c-0.207-0.177-0.582-0.342-1.127-0.496v-0.364
				h4.848v0.364c-0.474,0-0.896,0.154-1.27,0.462c-0.242,0.188-0.47,0.472-0.685,0.853c-0.214,0.379-0.47,0.949-0.767,1.709
				l-0.347,0.843l-3.923,9.83h-0.577l-3.603-11.049l-4.344,11.049h-0.561l-3.296-10.012l-0.397-1.206
				c-0.363-1.09-0.736-1.779-1.121-2.065c-0.22-0.176-0.566-0.313-1.039-0.413V120.642z"/>
			<path fill="#001371" d="M176.923,120.99l4.747-0.597v9.527l0.017,1.253c0,0.747,0.044,1.294,0.132,1.64
				c0.088,0.347,0.259,0.635,0.511,0.865c0.309,0.297,0.874,0.522,1.699,0.677v0.347h-7.288v-0.347
				c0.66-0.089,1.133-0.212,1.418-0.371c0.286-0.158,0.517-0.431,0.693-0.814c0.12-0.253,0.206-0.634,0.255-1.144
				c0.05-0.511,0.074-1.249,0.074-2.214v-4.065c0-1.13-0.027-1.923-0.082-2.377c-0.056-0.456-0.176-0.826-0.363-1.112
				c-0.187-0.307-0.411-0.528-0.676-0.666c-0.264-0.137-0.643-0.222-1.137-0.255V120.99z M180.36,114.456
				c-0.431,0-0.787-0.138-1.069-0.413c-0.281-0.275-0.423-0.624-0.423-1.043c0-0.408,0.144-0.752,0.432-1.033
				c0.287-0.281,0.641-0.423,1.061-0.423s0.774,0.142,1.062,0.423s0.431,0.625,0.431,1.033c0,0.419-0.141,0.768-0.423,1.043
				C181.148,114.318,180.79,114.456,180.36,114.456z"/>
			<path fill="#001371" d="M189.616,120.394c0.154,0.644,0.231,1.242,0.231,1.796v0.267c1.363-1.375,2.984-2.063,4.863-2.063
				c1.407,0,2.539,0.331,3.396,0.991c0.847,0.651,1.27,1.576,1.27,2.776v7.005c0,0.749,0.044,1.298,0.132,1.645
				s0.259,0.636,0.512,0.866c0.307,0.298,0.873,0.523,1.697,0.679v0.347h-7.287v-0.347c0.66-0.089,1.133-0.213,1.418-0.373
				c0.286-0.159,0.518-0.431,0.693-0.817c0.12-0.253,0.206-0.636,0.255-1.147c0.05-0.513,0.074-1.248,0.074-2.206v-3.502
				c0-1.201-0.041-2.082-0.123-2.644c-0.083-0.562-0.238-1.013-0.469-1.354c-0.253-0.386-0.614-0.686-1.086-0.9
				s-0.992-0.322-1.563-0.322c-0.614,0-1.187,0.122-1.719,0.363c-0.532,0.242-0.951,0.573-1.259,0.991
				c-0.329,0.44-0.545,0.939-0.649,1.495c-0.104,0.557-0.156,1.479-0.156,2.768v3.237l0.017,1.223c0,0.749,0.044,1.298,0.132,1.645
				s0.259,0.636,0.511,0.866c0.309,0.298,0.874,0.523,1.699,0.679v0.347h-7.288v-0.347c0.66-0.089,1.133-0.212,1.418-0.371
				c0.286-0.158,0.517-0.431,0.693-0.814c0.12-0.253,0.206-0.634,0.255-1.144c0.05-0.511,0.074-1.249,0.074-2.214v-4.065
				c0-1.13-0.027-1.923-0.082-2.377c-0.056-0.456-0.176-0.826-0.363-1.112c-0.187-0.307-0.412-0.528-0.676-0.666
				c-0.264-0.137-0.643-0.222-1.138-0.255v-0.347L189.616,120.394z"/>
			<path fill="#001371" d="M205.989,125.703c-0.044,0.541-0.066,0.933-0.066,1.176c0,0.958,0.141,1.896,0.419,2.812
				c0.279,0.915,0.66,1.676,1.143,2.282c0.493,0.618,1.104,1.104,1.832,1.456c0.728,0.354,1.492,0.529,2.292,0.529
				c0.591,0,1.152-0.1,1.684-0.298c0.531-0.199,0.972-0.475,1.323-0.827c0.395-0.387,0.733-1.004,1.019-1.853l0.347,0.115
				c-0.287,1.29-0.899,2.264-1.839,2.92s-2.189,0.984-3.75,0.984c-1.353,0-2.512-0.216-3.479-0.645
				c-0.967-0.431-1.786-1.092-2.456-1.986c-0.935-1.245-1.401-2.778-1.401-4.598c0-2.481,0.885-4.427,2.654-5.839
				c1.286-1.026,2.753-1.539,4.401-1.539c0.88,0,1.693,0.157,2.44,0.472s1.379,0.77,1.896,1.364
				c0.802,0.927,1.203,2.085,1.203,3.474H205.989z M213.177,125.059c-0.077-1.103-0.279-1.951-0.607-2.548
				c-0.296-0.54-0.689-0.967-1.182-1.281c-0.493-0.314-1.018-0.472-1.576-0.472c-0.94,0-1.764,0.408-2.47,1.224
				c-0.705,0.816-1.124,1.842-1.255,3.077H213.177z"/>
			<path fill="#001371" d="M225.408,120.642h6.414v0.364c-1.231,0.066-1.847,0.546-1.847,1.437c0,0.441,0.219,1.354,0.655,2.741
				l1.999,6.16l2.811-7.447c0.22-0.573,0.33-1.035,0.33-1.388c0-0.946-0.571-1.447-1.715-1.503v-0.364h6.314v0.364
				c-0.539,0.077-0.918,0.192-1.138,0.347c-0.352,0.243-0.527,0.605-0.527,1.09c0,0.387,0.104,0.932,0.312,1.635l2.17,7.267
				l2.558-6.539c0.328-0.848,0.492-1.492,0.492-1.933c0-0.594-0.207-1.051-0.62-1.37c-0.207-0.177-0.583-0.342-1.128-0.496v-0.364
				h4.848v0.364c-0.473,0-0.896,0.154-1.27,0.462c-0.241,0.188-0.471,0.472-0.685,0.853c-0.215,0.379-0.47,0.949-0.767,1.709
				l-0.348,0.843l-3.922,9.83h-0.578l-3.602-11.049l-4.344,11.049h-0.562l-3.295-10.012l-0.397-1.206
				c-0.362-1.09-0.736-1.779-1.121-2.065c-0.22-0.176-0.565-0.313-1.039-0.413V120.642z"/>
			<path fill="#001371" d="M250.369,125.703c-0.044,0.541-0.065,0.933-0.065,1.176c0,0.958,0.14,1.896,0.419,2.812
				s0.66,1.676,1.143,2.282c0.492,0.618,1.103,1.104,1.831,1.456c0.729,0.354,1.493,0.529,2.292,0.529
				c0.592,0,1.153-0.1,1.685-0.298c0.531-0.199,0.972-0.475,1.322-0.827c0.395-0.387,0.734-1.004,1.02-1.853l0.346,0.115
				c-0.285,1.29-0.898,2.264-1.838,2.92s-2.19,0.984-3.751,0.984c-1.352,0-2.512-0.216-3.479-0.645
				c-0.968-0.431-1.786-1.092-2.456-1.986c-0.935-1.245-1.402-2.778-1.402-4.598c0-2.481,0.885-4.427,2.655-5.839
				c1.286-1.026,2.753-1.539,4.401-1.539c0.879,0,1.692,0.157,2.44,0.472c0.747,0.314,1.379,0.77,1.896,1.364
				c0.803,0.927,1.204,2.085,1.204,3.474H250.369z M257.558,125.059c-0.076-1.103-0.278-1.951-0.606-2.548
				c-0.297-0.54-0.69-0.967-1.183-1.281s-1.017-0.472-1.574-0.472c-0.942,0-1.765,0.408-2.471,1.224
				c-0.706,0.816-1.124,1.842-1.256,3.077H257.558z"/>
			<path fill="#001371" d="M274.803,120.642h4.188v0.63h-4.188v9.626c0,1.158,0.196,1.985,0.591,2.481
				c0.208,0.275,0.482,0.491,0.821,0.645c0.341,0.155,0.708,0.231,1.102,0.231c0.493,0,0.904-0.102,1.232-0.306
				s0.69-0.576,1.085-1.116l0.246,0.215c-0.362,0.661-0.87,1.152-1.525,1.472c-0.653,0.32-1.469,0.48-2.448,0.48
				c-1.296,0-2.241-0.254-2.835-0.762c-0.319-0.265-0.527-0.581-0.627-0.95c-0.099-0.37-0.148-1.034-0.148-1.994v-10.022h-1.764
				v-0.266c0.715-0.231,1.374-0.678,1.979-1.339c0.365-0.409,0.658-0.813,0.879-1.217c0.223-0.401,0.433-0.923,0.632-1.563
				l0.166-0.546h0.614V120.642z"/>
			<path fill="#001371" d="M284.001,122.939c0.396-0.694,0.842-1.218,1.336-1.57c0.912-0.649,1.95-0.976,3.116-0.976
				c0.714,0,1.258,0.16,1.632,0.479c0.341,0.286,0.512,0.64,0.512,1.058c0,0.309-0.102,0.563-0.305,0.761
				c-0.205,0.199-0.466,0.298-0.784,0.298c-0.374,0-0.698-0.154-0.973-0.463l-0.511-0.562c-0.406-0.43-0.886-0.645-1.435-0.645
				c-0.747,0-1.33,0.485-1.747,1.453c-0.419,0.97-0.627,2.319-0.627,4.048v3.09l0.017,1.256c0,0.748,0.043,1.297,0.132,1.644
				c0.087,0.347,0.259,0.636,0.512,0.866c0.308,0.298,0.873,0.523,1.697,0.679v0.347h-7.286v-0.347
				c0.659-0.089,1.131-0.212,1.417-0.371c0.285-0.158,0.517-0.431,0.692-0.814c0.12-0.253,0.206-0.634,0.255-1.144
				c0.05-0.511,0.074-1.249,0.074-2.214v-4.065c0-1.13-0.027-1.923-0.082-2.377c-0.055-0.456-0.176-0.826-0.362-1.112
				c-0.188-0.307-0.412-0.528-0.676-0.666c-0.264-0.137-0.643-0.222-1.138-0.255v-0.347l4.25-0.597
				C283.906,121.384,284.001,122.232,284.001,122.939z"/>
			<path fill="#001371" d="M302.896,135c-0.144-0.671-0.215-1.36-0.215-2.065c-1.374,1.377-3,2.065-4.88,2.065
				c-1.374,0-2.479-0.336-3.313-1.008c-0.813-0.661-1.22-1.598-1.22-2.809v-5.75l-0.017-1.255c0-0.749-0.044-1.294-0.132-1.636
				s-0.254-0.634-0.495-0.876c-0.319-0.297-0.891-0.518-1.714-0.661v-0.364h4.847v8.387c0,1.18,0.041,2.054,0.123,2.621
				c0.083,0.569,0.233,1.034,0.452,1.398c0.241,0.375,0.587,0.67,1.036,0.885c0.449,0.216,0.953,0.322,1.514,0.322
				c0.614,0,1.189-0.12,1.727-0.362s0.96-0.572,1.267-0.992c0.317-0.429,0.529-0.924,0.633-1.486
				c0.104-0.562,0.156-1.487,0.156-2.775V125.4l-0.017-1.222c0-0.749-0.041-1.295-0.123-1.636c-0.083-0.342-0.25-0.634-0.503-0.876
				c-0.308-0.297-0.88-0.518-1.715-0.661v-0.364h4.848v8.972c0,1.134,0.029,1.93,0.09,2.387c0.061,0.458,0.179,0.829,0.354,1.115
				c0.198,0.309,0.429,0.531,0.692,0.669s0.644,0.223,1.138,0.256v0.348L302.896,135z"/>
			<path fill="#001371" d="M309.44,134.702v-4.682h0.265c0.307,1.147,0.69,2.063,1.151,2.746c0.844,1.246,1.831,1.869,2.96,1.869
				c0.69,0,1.288-0.209,1.793-0.629c0.548-0.462,0.822-1.119,0.822-1.968c0-0.695-0.197-1.301-0.592-1.819
				c-0.22-0.276-0.496-0.529-0.832-0.762c-0.334-0.23-0.896-0.557-1.685-0.975c-1.383-0.739-2.303-1.356-2.764-1.854
				c-0.657-0.705-0.986-1.521-0.986-2.447c0-0.993,0.33-1.848,0.989-2.564c0.758-0.816,1.763-1.225,3.017-1.225
				c0.561,0,1.082,0.1,1.566,0.299l0.561,0.248c0.176,0.065,0.33,0.099,0.462,0.099c0.208,0,0.406-0.166,0.593-0.496h0.33
				l0.181,3.755h-0.346c-0.12-0.529-0.249-0.953-0.387-1.274c-0.137-0.319-0.331-0.628-0.583-0.926
				c-0.34-0.419-0.734-0.747-1.185-0.984c-0.448-0.237-0.893-0.355-1.331-0.355c-0.613,0-1.138,0.224-1.57,0.67
				s-0.648,0.995-0.648,1.646c0,0.541,0.194,1.028,0.584,1.465c0.389,0.436,0.99,0.835,1.801,1.198l1.744,0.794
				c1.041,0.475,1.819,1.064,2.335,1.771s0.773,1.538,0.773,2.497c0,1.159-0.373,2.117-1.121,2.879
				c-0.857,0.882-1.956,1.323-3.297,1.323c-0.726,0-1.462-0.144-2.21-0.431c-0.483-0.187-0.774-0.295-0.873-0.322
				c-0.1-0.027-0.226-0.041-0.379-0.041c-0.385,0-0.676,0.165-0.874,0.496H309.44z"/>
			<path fill="#001371" d="M324.51,120.642h4.187v0.63h-4.187v9.626c0,1.158,0.196,1.985,0.591,2.481
				c0.208,0.275,0.482,0.491,0.821,0.645c0.34,0.155,0.708,0.231,1.102,0.231c0.493,0,0.904-0.102,1.232-0.306
				s0.689-0.576,1.085-1.116l0.246,0.215c-0.362,0.661-0.871,1.152-1.525,1.472c-0.653,0.32-1.469,0.48-2.448,0.48
				c-1.296,0-2.242-0.254-2.835-0.762c-0.319-0.265-0.527-0.581-0.627-0.95c-0.099-0.37-0.148-1.034-0.148-1.994v-10.022h-1.764
				v-0.266c0.715-0.231,1.374-0.678,1.979-1.339c0.365-0.409,0.658-0.813,0.879-1.217c0.222-0.401,0.432-0.923,0.632-1.563
				l0.166-0.546h0.614V120.642z"/>
		</g>
	</g>
</g>
</svg>
