<?xml version="1.0" encoding="utf-8"?>
<!-- Generator: Adobe Illustrator 16.0.0, SVG Export Plug-In . SVG Version: 6.00 Build 0)  -->
<!DOCTYPE svg PUBLIC "-//W3C//DTD SVG 1.1//EN" "http://www.w3.org/Graphics/SVG/1.1/DTD/svg11.dtd">
<svg version="1.1" id="Layer_1" xmlns="http://www.w3.org/2000/svg" xmlns:xlink="http://www.w3.org/1999/xlink" x="0px" y="0px"
	 width="40px" height="40px" viewBox="0 0 40 40" enable-background="new 0 0 40 40" xml:space="preserve">
<rect fill="#FFFFFF" width="40" height="40"/>
<path fill="#31A9DE" d="M30.672,14.959c0.01,0.226,0.016,0.451,0.016,0.679c0,6.928-5.272,14.917-14.917,14.917
	c-2.96,0-5.716-0.867-8.036-2.354c0.41,0.048,0.827,0.073,1.25,0.073c2.456,0,4.717-0.84,6.511-2.246
	c-2.294-0.041-4.23-1.557-4.897-3.641c0.32,0.063,0.648,0.096,0.986,0.096c0.478,0,0.941-0.064,1.381-0.186
	c-2.398-0.48-4.206-2.601-4.206-5.141c0-0.021,0-0.044,0-0.065c0.707,0.393,1.515,0.628,2.375,0.655
	c-1.407-0.939-2.333-2.545-2.333-4.363c0-0.961,0.259-1.861,0.71-2.636c2.586,3.172,6.449,5.259,10.806,5.478
	c-0.09-0.384-0.136-0.784-0.136-1.194c0-2.896,2.347-5.243,5.242-5.243c1.508,0,2.87,0.637,3.827,1.656
	c1.194-0.235,2.315-0.672,3.329-1.272c-0.393,1.224-1.223,2.251-2.307,2.9c1.062-0.127,2.072-0.408,3.013-0.825
	C32.585,13.297,31.695,14.221,30.672,14.959z"/>
</svg>
