<?xml version="1.0" encoding="utf-8"?>
<!-- Generator: Adobe Illustrator 16.0.0, SVG Export Plug-In . SVG Version: 6.00 Build 0)  -->
<!DOCTYPE svg PUBLIC "-//W3C//DTD SVG 1.1//EN" "http://www.w3.org/Graphics/SVG/1.1/DTD/svg11.dtd">
<svg version="1.1" id="Layer_1" xmlns="http://www.w3.org/2000/svg" xmlns:xlink="http://www.w3.org/1999/xlink" x="0px" y="0px"
	 width="40px" height="40px" viewBox="0 0 40 40" enable-background="new 0 0 40 40" xml:space="preserve">
<path fill="#507299" d="M23.162,23.596c-0.059,3.041-3.369,2.6-6.048,2.6l0.001-5.2C19.761,20.994,23.223,20.421,23.162,23.596z
	 M17.115,17.345c2.445,0,4.742,0.322,4.742-2.329c0-2.455-2.599-2.051-4.745-2.051l0.002,1.665V17.345z M28.63,23.979
	c0-1.738-0.203-2.752-1.293-3.861c-0.39-0.396-0.737-0.691-1.331-0.983c-0.369-0.182-1.471-0.511-1.636-0.646
	c1.923-1.137,2.858-2.142,2.86-4.726c0.002-3.095-2.656-4.625-5.78-4.625h-9.494l-0.04,20.906h9.052
	C24.729,30.044,28.63,28.016,28.63,23.979z"/>
<path fill="#FFFFFF" d="M23.162,23.596c-0.059,3.041-3.369,2.6-6.048,2.6l0.001-5.2C19.761,20.994,23.223,20.421,23.162,23.596z
	 M17.115,17.345c2.445,0,4.742,0.322,4.742-2.329c0-2.455-2.599-2.051-4.745-2.051l0.002,1.665V17.345z M40,0v40H0V0H40z
	 M28.63,23.979c0-1.738-0.203-2.752-1.293-3.861c-0.39-0.396-0.737-0.691-1.331-0.983c-0.369-0.182-1.471-0.511-1.636-0.646
	c1.923-1.137,2.858-2.142,2.86-4.726c0.002-3.095-2.656-4.625-5.78-4.625h-9.494l-0.04,20.906h9.052
	C24.729,30.044,28.63,28.016,28.63,23.979z"/>
</svg>
